<mxfile host="app.diagrams.net" agent="Mozilla/5.0 (X11; Linux x86_64; rv:137.0) Gecko/20100101 Firefox/137.0" version="26.2.14">
  <diagram name="Page-1" id="iNZcWQbrWTBf1bYqz_kx">
    <mxGraphModel dx="1615" dy="987" grid="1" gridSize="10" guides="1" tooltips="1" connect="1" arrows="1" fold="1" page="1" pageScale="1" pageWidth="850" pageHeight="1100" math="0" shadow="0">
      <root>
        <mxCell id="0" />
        <mxCell id="1" parent="0" />
        <mxCell id="krmDnAQeI4YR4ODCk061-5" value="" style="edgeStyle=orthogonalEdgeStyle;rounded=0;orthogonalLoop=1;jettySize=auto;html=1;" edge="1" parent="1" source="krmDnAQeI4YR4ODCk061-2" target="krmDnAQeI4YR4ODCk061-4">
          <mxGeometry relative="1" as="geometry" />
        </mxCell>
        <mxCell id="krmDnAQeI4YR4ODCk061-2" value="UI" style="whiteSpace=wrap;html=1;" vertex="1" parent="1">
          <mxGeometry x="180" y="30" width="120" height="60" as="geometry" />
        </mxCell>
        <mxCell id="krmDnAQeI4YR4ODCk061-17" value="" style="edgeStyle=orthogonalEdgeStyle;rounded=0;orthogonalLoop=1;jettySize=auto;html=1;" edge="1" parent="1" source="krmDnAQeI4YR4ODCk061-3" target="krmDnAQeI4YR4ODCk061-16">
          <mxGeometry relative="1" as="geometry" />
        </mxCell>
        <mxCell id="krmDnAQeI4YR4ODCk061-3" value="&lt;div&gt;Gameplay&lt;/div&gt;" style="whiteSpace=wrap;html=1;" vertex="1" parent="1">
          <mxGeometry x="560" y="30" width="120" height="60" as="geometry" />
        </mxCell>
        <mxCell id="krmDnAQeI4YR4ODCk061-7" value="" style="edgeStyle=orthogonalEdgeStyle;rounded=0;orthogonalLoop=1;jettySize=auto;html=1;" edge="1" parent="1" source="krmDnAQeI4YR4ODCk061-4" target="krmDnAQeI4YR4ODCk061-6">
          <mxGeometry relative="1" as="geometry" />
        </mxCell>
        <mxCell id="krmDnAQeI4YR4ODCk061-4" value="Intro UI" style="whiteSpace=wrap;html=1;" vertex="1" parent="1">
          <mxGeometry x="180" y="170" width="120" height="60" as="geometry" />
        </mxCell>
        <mxCell id="krmDnAQeI4YR4ODCk061-9" value="" style="edgeStyle=orthogonalEdgeStyle;rounded=0;orthogonalLoop=1;jettySize=auto;html=1;" edge="1" parent="1" source="krmDnAQeI4YR4ODCk061-6" target="krmDnAQeI4YR4ODCk061-8">
          <mxGeometry relative="1" as="geometry" />
        </mxCell>
        <mxCell id="krmDnAQeI4YR4ODCk061-11" value="" style="edgeStyle=orthogonalEdgeStyle;rounded=0;orthogonalLoop=1;jettySize=auto;html=1;" edge="1" parent="1" source="krmDnAQeI4YR4ODCk061-6" target="krmDnAQeI4YR4ODCk061-10">
          <mxGeometry relative="1" as="geometry" />
        </mxCell>
        <mxCell id="krmDnAQeI4YR4ODCk061-18" style="edgeStyle=orthogonalEdgeStyle;rounded=0;orthogonalLoop=1;jettySize=auto;html=1;entryX=0;entryY=0.5;entryDx=0;entryDy=0;" edge="1" parent="1" source="krmDnAQeI4YR4ODCk061-6" target="krmDnAQeI4YR4ODCk061-16">
          <mxGeometry relative="1" as="geometry" />
        </mxCell>
        <mxCell id="krmDnAQeI4YR4ODCk061-6" value="Choose a Difficulty" style="whiteSpace=wrap;html=1;" vertex="1" parent="1">
          <mxGeometry x="180" y="310" width="120" height="60" as="geometry" />
        </mxCell>
        <mxCell id="krmDnAQeI4YR4ODCk061-13" value="" style="edgeStyle=orthogonalEdgeStyle;rounded=0;orthogonalLoop=1;jettySize=auto;html=1;" edge="1" parent="1" source="krmDnAQeI4YR4ODCk061-8" target="krmDnAQeI4YR4ODCk061-12">
          <mxGeometry relative="1" as="geometry" />
        </mxCell>
        <mxCell id="krmDnAQeI4YR4ODCk061-8" value="Easy?" style="rhombus;whiteSpace=wrap;html=1;" vertex="1" parent="1">
          <mxGeometry x="130" y="420" width="80" height="80" as="geometry" />
        </mxCell>
        <mxCell id="krmDnAQeI4YR4ODCk061-15" value="" style="edgeStyle=orthogonalEdgeStyle;rounded=0;orthogonalLoop=1;jettySize=auto;html=1;" edge="1" parent="1" source="krmDnAQeI4YR4ODCk061-10" target="krmDnAQeI4YR4ODCk061-14">
          <mxGeometry relative="1" as="geometry" />
        </mxCell>
        <mxCell id="krmDnAQeI4YR4ODCk061-10" value="Hard?" style="rhombus;whiteSpace=wrap;html=1;" vertex="1" parent="1">
          <mxGeometry x="270" y="420" width="80" height="80" as="geometry" />
        </mxCell>
        <mxCell id="krmDnAQeI4YR4ODCk061-24" value="" style="edgeStyle=orthogonalEdgeStyle;rounded=0;orthogonalLoop=1;jettySize=auto;html=1;" edge="1" parent="1" source="krmDnAQeI4YR4ODCk061-12" target="krmDnAQeI4YR4ODCk061-23">
          <mxGeometry relative="1" as="geometry" />
        </mxCell>
        <mxCell id="krmDnAQeI4YR4ODCk061-12" value="Set list of guesses to 10" style="whiteSpace=wrap;html=1;" vertex="1" parent="1">
          <mxGeometry x="110" y="590" width="120" height="60" as="geometry" />
        </mxCell>
        <mxCell id="krmDnAQeI4YR4ODCk061-25" style="edgeStyle=orthogonalEdgeStyle;rounded=0;orthogonalLoop=1;jettySize=auto;html=1;" edge="1" parent="1" source="krmDnAQeI4YR4ODCk061-14" target="krmDnAQeI4YR4ODCk061-23">
          <mxGeometry relative="1" as="geometry" />
        </mxCell>
        <mxCell id="krmDnAQeI4YR4ODCk061-27" value="" style="edgeStyle=orthogonalEdgeStyle;rounded=0;orthogonalLoop=1;jettySize=auto;html=1;" edge="1" parent="1" source="krmDnAQeI4YR4ODCk061-14" target="krmDnAQeI4YR4ODCk061-26">
          <mxGeometry relative="1" as="geometry" />
        </mxCell>
        <mxCell id="krmDnAQeI4YR4ODCk061-14" value="Set list of guesses to 5" style="whiteSpace=wrap;html=1;" vertex="1" parent="1">
          <mxGeometry x="250" y="590" width="120" height="60" as="geometry" />
        </mxCell>
        <mxCell id="krmDnAQeI4YR4ODCk061-20" value="" style="edgeStyle=orthogonalEdgeStyle;rounded=0;orthogonalLoop=1;jettySize=auto;html=1;" edge="1" parent="1" source="krmDnAQeI4YR4ODCk061-16" target="krmDnAQeI4YR4ODCk061-19">
          <mxGeometry relative="1" as="geometry" />
        </mxCell>
        <mxCell id="krmDnAQeI4YR4ODCk061-22" value="" style="edgeStyle=orthogonalEdgeStyle;rounded=0;orthogonalLoop=1;jettySize=auto;html=1;" edge="1" parent="1" source="krmDnAQeI4YR4ODCk061-16" target="krmDnAQeI4YR4ODCk061-21">
          <mxGeometry relative="1" as="geometry" />
        </mxCell>
        <mxCell id="krmDnAQeI4YR4ODCk061-16" value="You have x guesses to get the number" style="whiteSpace=wrap;html=1;" vertex="1" parent="1">
          <mxGeometry x="560" y="170" width="120" height="60" as="geometry" />
        </mxCell>
        <mxCell id="krmDnAQeI4YR4ODCk061-38" value="" style="edgeStyle=orthogonalEdgeStyle;rounded=0;orthogonalLoop=1;jettySize=auto;html=1;" edge="1" parent="1" source="krmDnAQeI4YR4ODCk061-19" target="krmDnAQeI4YR4ODCk061-37">
          <mxGeometry relative="1" as="geometry" />
        </mxCell>
        <mxCell id="krmDnAQeI4YR4ODCk061-41" value="" style="edgeStyle=orthogonalEdgeStyle;rounded=0;orthogonalLoop=1;jettySize=auto;html=1;" edge="1" parent="1" source="krmDnAQeI4YR4ODCk061-19" target="krmDnAQeI4YR4ODCk061-40">
          <mxGeometry relative="1" as="geometry" />
        </mxCell>
        <mxCell id="krmDnAQeI4YR4ODCk061-19" value="Guess Wrong?" style="rhombus;whiteSpace=wrap;html=1;" vertex="1" parent="1">
          <mxGeometry x="490" y="320" width="80" height="80" as="geometry" />
        </mxCell>
        <mxCell id="krmDnAQeI4YR4ODCk061-36" style="edgeStyle=orthogonalEdgeStyle;rounded=0;orthogonalLoop=1;jettySize=auto;html=1;entryX=0;entryY=0.75;entryDx=0;entryDy=0;" edge="1" parent="1" source="krmDnAQeI4YR4ODCk061-21" target="krmDnAQeI4YR4ODCk061-28">
          <mxGeometry relative="1" as="geometry" />
        </mxCell>
        <mxCell id="krmDnAQeI4YR4ODCk061-21" value="&lt;div&gt;Guess&amp;nbsp;&lt;/div&gt;&lt;div&gt;Right?&lt;/div&gt;" style="rhombus;whiteSpace=wrap;html=1;" vertex="1" parent="1">
          <mxGeometry x="680" y="320" width="80" height="80" as="geometry" />
        </mxCell>
        <mxCell id="krmDnAQeI4YR4ODCk061-29" value="" style="edgeStyle=orthogonalEdgeStyle;rounded=0;orthogonalLoop=1;jettySize=auto;html=1;" edge="1" parent="1" source="krmDnAQeI4YR4ODCk061-23" target="krmDnAQeI4YR4ODCk061-28">
          <mxGeometry relative="1" as="geometry" />
        </mxCell>
        <mxCell id="krmDnAQeI4YR4ODCk061-23" value="&lt;div&gt;Guess Correct?&lt;/div&gt;&lt;div&gt;&lt;br&gt;&lt;/div&gt;" style="rhombus;whiteSpace=wrap;html=1;" vertex="1" parent="1">
          <mxGeometry x="170" y="700" width="80" height="80" as="geometry" />
        </mxCell>
        <mxCell id="krmDnAQeI4YR4ODCk061-32" value="" style="edgeStyle=orthogonalEdgeStyle;rounded=0;orthogonalLoop=1;jettySize=auto;html=1;" edge="1" parent="1" source="krmDnAQeI4YR4ODCk061-26" target="krmDnAQeI4YR4ODCk061-31">
          <mxGeometry relative="1" as="geometry" />
        </mxCell>
        <mxCell id="krmDnAQeI4YR4ODCk061-26" value="Guesses wrong?" style="rhombus;whiteSpace=wrap;html=1;" vertex="1" parent="1">
          <mxGeometry x="250" y="700" width="80" height="80" as="geometry" />
        </mxCell>
        <mxCell id="krmDnAQeI4YR4ODCk061-28" value="You got it! answer was x!" style="whiteSpace=wrap;html=1;" vertex="1" parent="1">
          <mxGeometry x="150" y="870" width="120" height="60" as="geometry" />
        </mxCell>
        <mxCell id="krmDnAQeI4YR4ODCk061-31" value="Game over! You lost" style="whiteSpace=wrap;html=1;" vertex="1" parent="1">
          <mxGeometry x="270" y="870" width="120" height="60" as="geometry" />
        </mxCell>
        <mxCell id="krmDnAQeI4YR4ODCk061-43" value="" style="edgeStyle=orthogonalEdgeStyle;rounded=0;orthogonalLoop=1;jettySize=auto;html=1;" edge="1" parent="1" source="krmDnAQeI4YR4ODCk061-37" target="krmDnAQeI4YR4ODCk061-42">
          <mxGeometry relative="1" as="geometry" />
        </mxCell>
        <mxCell id="krmDnAQeI4YR4ODCk061-37" value="Number too high?" style="rhombus;whiteSpace=wrap;html=1;" vertex="1" parent="1">
          <mxGeometry x="440" y="470" width="80" height="80" as="geometry" />
        </mxCell>
        <mxCell id="krmDnAQeI4YR4ODCk061-45" value="" style="edgeStyle=orthogonalEdgeStyle;rounded=0;orthogonalLoop=1;jettySize=auto;html=1;" edge="1" parent="1" source="krmDnAQeI4YR4ODCk061-40" target="krmDnAQeI4YR4ODCk061-44">
          <mxGeometry relative="1" as="geometry" />
        </mxCell>
        <mxCell id="krmDnAQeI4YR4ODCk061-40" value="Number too Low?" style="rhombus;whiteSpace=wrap;html=1;" vertex="1" parent="1">
          <mxGeometry x="540" y="470" width="80" height="80" as="geometry" />
        </mxCell>
        <mxCell id="krmDnAQeI4YR4ODCk061-48" value="" style="edgeStyle=orthogonalEdgeStyle;rounded=0;orthogonalLoop=1;jettySize=auto;html=1;" edge="1" parent="1" source="krmDnAQeI4YR4ODCk061-42" target="krmDnAQeI4YR4ODCk061-47">
          <mxGeometry relative="1" as="geometry" />
        </mxCell>
        <mxCell id="krmDnAQeI4YR4ODCk061-42" value="&lt;div&gt;Print Too high&lt;/div&gt;" style="whiteSpace=wrap;html=1;" vertex="1" parent="1">
          <mxGeometry x="420" y="580" width="120" height="60" as="geometry" />
        </mxCell>
        <mxCell id="krmDnAQeI4YR4ODCk061-49" value="" style="edgeStyle=orthogonalEdgeStyle;rounded=0;orthogonalLoop=1;jettySize=auto;html=1;" edge="1" parent="1" source="krmDnAQeI4YR4ODCk061-44" target="krmDnAQeI4YR4ODCk061-47">
          <mxGeometry relative="1" as="geometry" />
        </mxCell>
        <mxCell id="krmDnAQeI4YR4ODCk061-44" value="Print Too low" style="whiteSpace=wrap;html=1;" vertex="1" parent="1">
          <mxGeometry x="550" y="580" width="120" height="60" as="geometry" />
        </mxCell>
        <mxCell id="krmDnAQeI4YR4ODCk061-51" value="" style="edgeStyle=orthogonalEdgeStyle;rounded=0;orthogonalLoop=1;jettySize=auto;html=1;" edge="1" parent="1" source="krmDnAQeI4YR4ODCk061-47" target="krmDnAQeI4YR4ODCk061-50">
          <mxGeometry relative="1" as="geometry" />
        </mxCell>
        <mxCell id="krmDnAQeI4YR4ODCk061-47" value="Return number of guesses left" style="whiteSpace=wrap;html=1;" vertex="1" parent="1">
          <mxGeometry x="480" y="700" width="120" height="60" as="geometry" />
        </mxCell>
        <mxCell id="krmDnAQeI4YR4ODCk061-52" style="edgeStyle=orthogonalEdgeStyle;rounded=0;orthogonalLoop=1;jettySize=auto;html=1;entryX=1;entryY=0.75;entryDx=0;entryDy=0;" edge="1" parent="1" source="krmDnAQeI4YR4ODCk061-50" target="krmDnAQeI4YR4ODCk061-31">
          <mxGeometry relative="1" as="geometry" />
        </mxCell>
        <mxCell id="krmDnAQeI4YR4ODCk061-50" value="Out of guesses?" style="rhombus;whiteSpace=wrap;html=1;" vertex="1" parent="1">
          <mxGeometry x="500" y="830" width="80" height="80" as="geometry" />
        </mxCell>
      </root>
    </mxGraphModel>
  </diagram>
</mxfile>
